<svg width="222" height="93" viewBox="0 0 222 93" fill="none" xmlns="http://www.w3.org/2000/svg">
<g clip-path="url(#clip0_56_318)">
<mask id="mask0_56_318" style="mask-type:luminance" maskUnits="userSpaceOnUse" x="0" y="-1" width="222" height="94">
<path d="M0 -0.000457764H221.103V92.6929H0V-0.000457764Z" fill="white"/>
</mask>
<g mask="url(#mask0_56_318)">
<path d="M37.8334 31.5495C34.6721 37.0682 31.5654 42.4882 28.4241 47.9722C28.2907 47.8135 28.1921 47.7255 28.1294 47.6148C26.7267 45.1868 25.3321 42.7535 23.9227 40.3295C23.6694 39.8948 23.6801 39.5042 23.9267 39.0775C25.2387 36.8148 26.5507 34.5508 27.8441 32.2762C28.1387 31.7575 28.5174 31.5468 29.1267 31.5522C31.7947 31.5748 34.4641 31.5535 37.1321 31.5495C37.3201 31.5495 37.5067 31.5495 37.8334 31.5495Z" fill="white"/>
<path d="M58.7334 31.4417C58.8948 31.6737 58.9988 31.8044 59.0814 31.9484C60.4401 34.3057 61.7894 36.6697 63.1574 39.0217C63.4308 39.4924 63.4161 39.9217 63.1561 40.3751C61.8494 42.6617 60.5441 44.9524 59.2348 47.2391C59.0214 47.6111 58.7428 47.8737 58.2601 47.8711C55.4188 47.8551 52.5774 47.8524 49.7361 47.8431C49.6361 47.8431 49.5361 47.8231 49.3254 47.7991C52.4641 42.3431 55.5694 36.9417 58.7334 31.4417Z" fill="white"/>
<path d="M39.4629 48.8203H58.2882C57.8402 49.6083 57.4336 50.3323 57.0162 51.0509C55.9762 52.8403 54.9256 54.6229 53.8949 56.4163C53.6656 56.8163 53.3642 57.0109 52.9056 57.0136C50.1856 57.0269 47.4656 57.0469 44.7456 57.0629C44.3176 57.0669 43.9762 56.8976 43.7629 56.5229C42.3869 54.1189 41.0162 51.7109 39.6482 49.3016C39.5749 49.1736 39.5402 49.0243 39.4629 48.8203Z" fill="white"/>
<path d="M44.0629 22.426C44.3562 22.4086 44.5189 22.39 44.6815 22.39C47.3669 22.3886 50.0535 22.4006 52.7402 22.3806C53.3069 22.3766 53.6735 22.5913 53.9469 23.0686C55.2389 25.326 56.5375 27.578 57.8415 29.8273C58.0869 30.2526 58.1135 30.6713 57.8722 31.0926C56.4389 33.602 55.0002 36.1086 53.5615 38.6153C53.5469 38.642 53.5109 38.658 53.4215 38.73C50.3162 33.3206 47.2175 27.922 44.0629 22.426Z" fill="white"/>
<path d="M28.8798 30.5884C28.9864 30.359 29.0518 30.1884 29.1424 30.0324C30.4784 27.723 31.8264 25.419 33.1518 23.103C33.4384 22.6017 33.8104 22.379 34.3918 22.383C36.9758 22.4004 39.5611 22.3977 42.1451 22.383C42.6958 22.3804 43.0931 22.563 43.3718 23.0484C44.8011 25.539 46.2398 28.0244 47.7198 30.5884H28.8798Z" fill="white"/>
<path d="M43.0423 57.0409C42.6103 57.0409 42.309 57.0422 42.0077 57.0409C39.4077 57.0316 36.8077 57.0156 34.2077 57.0182C33.7623 57.0182 33.4677 56.8529 33.249 56.4729C31.929 54.1742 30.6063 51.8769 29.2663 49.5902C29.0023 49.1396 29.0063 48.7622 29.2703 48.3062C30.649 45.9236 32.0023 43.5262 33.3663 41.1342C33.441 41.0022 33.525 40.8756 33.6677 40.6436C36.793 46.1089 39.881 51.5102 43.0423 57.0409Z" fill="white"/>
<path d="M73.6337 50.7479L75.175 48.9799C78.6643 52.1985 81.883 53.6945 86.5523 53.6945C91.3123 53.6945 94.5763 51.0199 94.5763 47.3932V47.3025C94.5763 43.9479 92.807 41.9985 85.6003 40.5492C77.9857 39.0079 74.903 36.4239 74.903 31.6185V31.5292C74.903 26.8145 79.2097 23.1879 85.1017 23.1879C89.7257 23.1879 92.763 24.4572 95.9803 27.0412L94.4843 28.8985C91.4937 26.3159 88.5017 25.3185 85.011 25.3185C80.3417 25.3185 77.2603 27.9932 77.2603 31.3025V31.3919C77.2603 34.7465 78.983 36.7865 86.507 38.3292C93.851 39.8239 96.9323 42.4519 96.9323 47.0759V47.1665C96.9323 52.2892 92.5363 55.8252 86.4163 55.8252C81.339 55.8252 77.4403 54.1479 73.6337 50.7479Z" fill="white"/>
<path d="M115.747 41.3649C121.639 41.3649 125.628 38.2822 125.628 33.5676V33.4782C125.628 28.4462 121.73 25.8169 116.019 25.8169H107.044V41.3649H115.747ZM104.687 23.6409H116.2C123.18 23.6409 127.986 27.2222 127.986 33.3409V33.4329C127.986 40.0956 122.228 43.5409 115.611 43.5409H107.044V55.3716H104.687V23.6409Z" fill="white"/>
<path d="M134.471 42.1813V23.6413H136.828V41.9533C136.828 49.4333 140.862 53.7399 147.571 53.7399C154.007 53.7399 158.132 49.8413 158.132 42.1813V23.6413H160.49V41.9093C160.49 51.0199 155.187 55.8706 147.48 55.8706C139.866 55.8706 134.471 51.0653 134.471 42.1813Z" fill="white"/>
<path d="M182.477 40.0956C187.781 40.0956 191.724 37.4209 191.724 32.8436V32.7529C191.724 28.4916 188.369 25.8169 182.613 25.8169H171.78V40.0956H182.477ZM169.422 23.6409H182.749C186.646 23.6409 189.776 24.8649 191.678 26.7689C193.174 28.2649 194.081 30.3956 194.081 32.6622V32.7529C194.081 38.0569 190.138 41.0929 184.789 41.8182L195.26 55.3716H192.268L182.16 42.2262H171.78V55.3716H169.422V23.6409Z" fill="white"/>
<path d="M36.6361 65.598H37.8988V71.334H36.6361V65.598Z" fill="white"/>
<path d="M42.8528 65.598H44.0168L46.7048 69.13V65.598H47.9501V71.334H46.8768L44.0981 67.6887V71.334H42.8528V65.598Z" fill="white"/>
<path d="M52.8459 65.598H54.0099L56.6979 69.13V65.598H57.9433V71.334H56.8699L54.0913 67.6887V71.334H52.8459V65.598Z" fill="white"/>
<path d="M67.3633 68.4824V68.4664C67.3633 67.4824 66.6419 66.6638 65.6259 66.6638C64.6099 66.6638 63.9046 67.4664 63.9046 68.4491V68.4664C63.9046 69.4491 64.6259 70.2691 65.6419 70.2691C66.6579 70.2691 67.3633 69.4664 67.3633 68.4824ZM62.5846 68.4824V68.4664C62.5846 66.8358 63.8713 65.4998 65.6419 65.4998C67.4126 65.4998 68.6819 66.8184 68.6819 68.4491V68.4664C68.6819 70.0971 67.3953 71.4331 65.6259 71.4331C63.8553 71.4331 62.5846 70.1131 62.5846 68.4824Z" fill="white"/>
<path d="M72.4633 65.5982H73.8566L75.3566 69.6382L76.8566 65.5982H78.2166L75.8966 71.3755H74.7833L72.4633 65.5982Z" fill="white"/>
<path d="M85.0962 68.9336L84.3336 67.0736L83.5722 68.9336H85.0962ZM83.7682 65.5563H84.9322L87.3909 71.335H86.0722L85.5469 70.0483H83.1216L82.5962 71.335H81.3096L83.7682 65.5563Z" fill="white"/>
<path d="M92.3938 66.7616H90.6484V65.599H95.4018V66.7616H93.6564V71.335H92.3938V66.7616Z" fill="white"/>
<path d="M99.9454 65.598H101.208V71.334H99.9454V65.598Z" fill="white"/>
<path d="M110.686 68.4824V68.4664C110.686 67.4824 109.965 66.6638 108.949 66.6638C107.933 66.6638 107.227 67.4664 107.227 68.4491V68.4664C107.227 69.4491 107.949 70.2691 108.965 70.2691C109.981 70.2691 110.686 69.4664 110.686 68.4824ZM105.907 68.4824V68.4664C105.907 66.8358 107.194 65.4998 108.965 65.4998C110.735 65.4998 112.005 66.8184 112.005 68.4491V68.4664C112.005 70.0971 110.718 71.4331 108.949 71.4331C107.178 71.4331 105.907 70.1131 105.907 68.4824Z" fill="white"/>
<path d="M116.647 65.598H117.811L120.499 69.13V65.598H121.744V71.334H120.671L117.892 67.6887V71.334H116.647V65.598Z" fill="white"/>
<path d="M132.365 68.4824V68.4664C132.365 66.8358 133.594 65.4998 135.357 65.4998C136.438 65.4998 137.085 65.8598 137.618 66.3838L136.816 67.3118C136.373 66.9091 135.922 66.6638 135.348 66.6638C134.381 66.6638 133.685 67.4664 133.685 68.4491V68.4664C133.685 69.4491 134.365 70.2691 135.348 70.2691C136.004 70.2691 136.406 70.0064 136.857 69.5971L137.66 70.4091C137.069 71.0398 136.414 71.4331 135.308 71.4331C133.62 71.4331 132.365 70.1304 132.365 68.4824Z" fill="white"/>
<path d="M142.186 65.598H146.513V66.7207H143.439V67.8847H146.145V69.0073H143.439V70.2113H146.554V71.334H142.186V65.598Z" fill="white"/>
<path d="M151.197 65.598H152.359L155.049 69.13V65.598H156.294V71.334H155.221L152.442 67.6887V71.334H151.197V65.598Z" fill="white"/>
<path d="M162.525 66.7616H160.779V65.599H165.534V66.7616H163.787V71.335H162.525V66.7616Z" fill="white"/>
<path d="M172.56 68.3843C173.175 68.3843 173.527 68.0563 173.527 67.5723V67.5563C173.527 67.015 173.149 66.7376 172.535 66.7376H171.281V68.3843H172.56ZM170.019 65.599H172.641C173.372 65.599 173.937 65.803 174.313 66.1803C174.633 66.5003 174.805 66.9496 174.805 67.491V67.5083C174.805 68.4336 174.305 69.015 173.576 69.2856L174.977 71.335H173.501L172.273 69.499H171.281V71.335H170.019V65.599Z" fill="white"/>
<path d="M179.463 65.598H183.791V66.7207H180.718V67.8847H183.422V69.0073H180.718V70.2113H183.833V71.334H179.463V65.598Z" fill="white"/>
</g>
</g>
<defs>
<clipPath id="clip0_56_318">
<rect width="221.103" height="92.6929" fill="white"/>
</clipPath>
</defs>
</svg>
